<svg width="49" height="48" viewBox="0 0 49 48" fill="none" xmlns="http://www.w3.org/2000/svg">
<path d="M29.8933 12.3028L30.6124 13.0219L30.7424 13.1519M36.3652 18.7747L35.4663 17.8758L35.3363 17.7458M35.3363 17.7458L30.6158 22.4663C31.1903 23.6923 31.5113 25.0609 31.5113 26.5043C31.5113 31.7666 27.2454 36.0324 21.9832 36.0324C16.7209 36.0324 12.4551 31.7666 12.4551 26.5043C12.4551 21.2421 16.7209 16.9763 21.9832 16.9763C23.427 16.9763 24.7958 17.2974 26.0221 17.8722L30.7424 13.1519M35.3363 17.7458L30.7424 13.1519" stroke="#5755FE" stroke-width="1.5" stroke-linecap="round" stroke-linejoin="round"/>
<path fill-rule="evenodd" clip-rule="evenodd" d="M29.3549 26.5056C29.3549 30.5764 26.0548 33.8764 21.9841 33.8764C17.9133 33.8764 14.6133 30.5764 14.6133 26.5056C14.6133 22.4348 17.9133 19.1348 21.9841 19.1348C22.5399 19.1348 23.0814 19.1964 23.602 19.313L29.1767 24.8876C29.2933 25.4083 29.3549 25.9498 29.3549 26.5056Z" fill="#5755FE"/>
</svg>
