<svg width="215" height="146" viewBox="0 0 215 146" fill="none" xmlns="http://www.w3.org/2000/svg">
<rect x="0.655325" y="0.655325" width="213.689" height="144.689" rx="6.35478" stroke="#808080" stroke-width="1.31065" stroke-dasharray="2.62 2.62"/>
<mask id="mask0_2187_466" style="mask-type:alpha" maskUnits="userSpaceOnUse" x="81" y="53" width="47" height="49">
<rect x="125.365" y="101.123" width="43.7726" height="45.9231" transform="rotate(-177.039 125.365 101.123)" fill="#D9D9D9"/>
</mask>
<g mask="url(#mask0_2187_466)">
<path d="M111.647 92.2378C110.262 92.1661 109.15 91.648 108.276 90.6856C107.405 89.7263 107.001 88.5569 107.074 87.1393C107.122 86.2094 107.417 85.1792 107.983 84.0444C108.55 82.9095 109.505 81.4832 110.866 79.7599L110.868 79.7571C112.323 77.8842 113.423 76.2131 114.158 74.7465C114.893 73.2796 115.309 71.9183 115.373 70.6701C115.413 69.9113 115.305 69.2413 114.999 68.7057L114.999 68.7048C114.684 68.1545 114.201 67.8176 113.574 67.7852C113.071 67.7592 112.591 67.8727 112.143 68.119C111.721 68.352 111.138 68.811 110.414 69.4582L110.415 69.4592C110.032 69.8004 109.609 70.2029 109.148 70.6669L108.675 71.1508C108.031 71.818 107.251 72.6277 106.335 73.5791L106.329 73.5856C103.888 76.2144 101.782 78.0248 100.01 79.0497C98.2497 80.0672 96.4619 80.5197 94.6376 80.4254C92.4786 80.3136 90.7975 79.4841 89.5481 77.9443L89.5481 77.9433C88.2914 76.3946 87.6152 74.2922 87.5692 71.5855L87.5611 71.1187L84.1204 70.9407C83.6984 70.9189 83.354 70.7766 83.066 70.5106L82.9452 70.389C82.6349 70.0442 82.4937 69.6462 82.5186 69.1642C82.5436 68.6819 82.7258 68.3005 83.0703 67.9899C83.4152 67.6791 83.8131 67.5375 84.2952 67.5624L87.7369 67.7404L87.7922 67.2759C88.2534 63.3929 89.3858 60.3872 91.1524 58.2167C92.9085 56.0588 95.0008 55.0793 97.4569 55.2063C99.164 55.2946 100.52 55.9252 101.563 57.0899C102.609 58.2568 103.093 59.6597 103.006 61.3342C102.878 63.8071 101.736 65.9885 99.5135 67.889C97.291 69.7901 94.5975 70.8816 91.4121 71.1536L90.9387 71.1936L90.9552 71.6688C91.0081 73.2077 91.2871 74.4593 91.8455 75.3662L91.9605 75.5433C92.6143 76.4882 93.5799 76.9842 94.7909 77.0469C96.0229 77.1107 97.3029 76.7179 98.6195 75.9259L98.8832 75.7625C100.29 74.8628 101.975 73.3383 103.933 71.2175L103.934 71.2156C106.569 68.3455 108.537 66.4877 109.852 65.5988C111.144 64.7251 112.44 64.3402 113.748 64.4079C115.191 64.4825 116.359 65.0308 117.279 66.0622L117.46 66.2749C118.41 67.4482 118.852 68.8923 118.761 70.6429C118.672 72.3694 118.198 74.1527 117.327 75.9959C116.456 77.8423 115.058 79.9885 113.121 82.4366L113.122 82.4376C112.238 83.5333 111.578 84.4611 111.157 85.2178C110.741 85.9659 110.486 86.6494 110.455 87.2467C110.433 87.6643 110.506 88.0796 110.776 88.3947L110.776 88.3957L110.882 88.5038C111.139 88.7383 111.472 88.8424 111.822 88.8605C112.177 88.8789 112.548 88.8011 112.925 88.6565C113.322 88.5046 113.729 88.2515 114.148 87.9169L114.154 87.9123C114.54 87.5934 114.948 87.4479 115.393 87.4533C115.822 87.4585 116.172 87.6174 116.472 87.9501L116.473 87.9502C116.772 88.2895 116.925 88.6566 116.949 89.0651L116.951 89.2432C116.935 89.7096 116.75 90.0753 116.371 90.3739L116.368 90.3757C115.529 91.0454 114.711 91.5297 113.915 91.8378C113.118 92.1461 112.363 92.2749 111.647 92.2378ZM91.7743 67.7068C93.7977 67.4783 95.5871 66.7423 97.1299 65.4981C98.663 64.2612 99.5405 62.8678 99.6208 61.3145C99.6588 60.5786 99.4802 59.9253 99.0389 59.4069L99.0379 59.4069C98.5882 58.8795 97.958 58.6186 97.2149 58.5801C95.6612 58.4998 94.3637 59.3373 93.3238 60.889C92.2889 62.4337 91.5982 64.5292 91.2228 67.1394L91.1309 67.7801L91.7743 67.7068Z" fill="#808080" stroke="white"/>
</g>
<path d="M115.71 87.1614L115.513 85.4911L127.463 70.333L129.331 71.8057L117.381 86.9637L115.71 87.1614ZM113.817 88.1856C113.858 88.5248 114.006 88.7954 114.263 88.9976C114.519 89.2 114.817 89.2811 115.156 89.2409L117.45 88.9695C117.773 88.9313 118.073 88.8328 118.351 88.6742C118.629 88.5158 118.864 88.315 119.056 88.0719L133.832 69.3209C133.99 69.0992 134.104 68.8616 134.175 68.608C134.245 68.3541 134.265 68.0945 134.233 67.829C134.202 67.5635 134.124 67.312 134.001 67.0744C133.877 66.8367 133.701 66.634 133.473 66.4666L131.644 65.0433C131.428 64.8605 131.19 64.7402 130.93 64.6824C130.67 64.6245 130.416 64.6103 130.166 64.6399C129.9 64.6714 129.651 64.7469 129.42 64.8665C129.189 64.986 128.985 65.1569 128.808 65.3789L114.044 84.1208C113.852 84.3639 113.712 84.6391 113.623 84.9464C113.533 85.2537 113.508 85.5687 113.546 85.8916L113.817 88.1856ZM128.384 71.0856L129.331 71.8057L127.463 70.333L128.384 71.0856Z" fill="#808080"/>
</svg>
