<svg width="215" height="147" viewBox="0 0 215 147" fill="none" xmlns="http://www.w3.org/2000/svg">
<rect x="0.655325" y="1.15532" width="213.689" height="144.689" rx="6.35478" stroke="#D9D9D9" stroke-width="1.31065" stroke-dasharray="2.62 2.62"/>
<mask id="mask0_2166_503" style="mask-type:alpha" maskUnits="userSpaceOnUse" x="81" y="53" width="47" height="49">
<rect x="125.365" y="101.623" width="43.7726" height="45.9231" transform="rotate(-177.039 125.365 101.623)" fill="#D9D9D9"/>
</mask>
<g mask="url(#mask0_2166_503)">
<path d="M111.647 92.7378C110.262 92.6661 109.15 92.148 108.276 91.1856C107.405 90.2264 107.001 89.0569 107.074 87.6393C107.122 86.7094 107.417 85.6792 107.983 84.5445C108.55 83.4096 109.505 81.9832 110.866 80.2599L110.868 80.2571C112.323 78.3842 113.423 76.7131 114.158 75.2466C114.893 73.7796 115.309 72.4183 115.373 71.1701C115.413 70.4113 115.305 69.7413 114.999 69.2057L114.999 69.2048C114.684 68.6546 114.201 68.3177 113.574 68.2852C113.071 68.2592 112.591 68.3727 112.143 68.619C111.721 68.852 111.138 69.311 110.414 69.9582L110.415 69.9592C110.032 70.3004 109.609 70.7029 109.148 71.1669L108.675 71.6508C108.031 72.318 107.251 73.1277 106.335 74.0791L106.329 74.0857C103.888 76.7144 101.782 78.5248 100.01 79.5497C98.2497 80.5672 96.4619 81.0198 94.6376 80.9254C92.4786 80.8136 90.7975 79.9841 89.5481 78.4443L89.5481 78.4433C88.2914 76.8946 87.6152 74.7922 87.5692 72.0855L87.5611 71.6187L84.1204 71.4407C83.6984 71.4189 83.354 71.2766 83.066 71.0106L82.9452 70.889C82.6349 70.5442 82.4937 70.1462 82.5186 69.6642C82.5436 69.1819 82.7258 68.8005 83.0703 68.4899C83.4152 68.1791 83.8131 68.0375 84.2952 68.0624L87.7369 68.2404L87.7922 67.7759C88.2534 63.8929 89.3858 60.8872 91.1524 58.7167C92.9085 56.5588 95.0008 55.5793 97.4569 55.7063C99.164 55.7946 100.52 56.4252 101.563 57.5899C102.609 58.7569 103.093 60.1597 103.006 61.8342C102.878 64.3071 101.736 66.4885 99.5135 68.389C97.291 70.2901 94.5975 71.3816 91.4121 71.6536L90.9387 71.6937L90.9552 72.1688C91.0081 73.7077 91.2871 74.9593 91.8455 75.8662L91.9605 76.0433C92.6143 76.9882 93.5799 77.4842 94.7909 77.547C96.0229 77.6107 97.3029 77.2179 98.6195 76.4259L98.8832 76.2625C100.29 75.3628 101.975 73.8383 103.933 71.7175L103.934 71.7156C106.569 68.8455 108.537 66.9877 109.852 66.0988C111.144 65.2251 112.44 64.8402 113.748 64.9079C115.191 64.9825 116.359 65.5308 117.279 66.5622L117.46 66.7749C118.41 67.9482 118.852 69.3923 118.761 71.1429C118.672 72.8694 118.198 74.6527 117.327 76.4959C116.456 78.3423 115.058 80.4885 113.121 82.9366L113.122 82.9377C112.238 84.0333 111.578 84.9611 111.157 85.7178C110.741 86.4659 110.486 87.1494 110.455 87.7467C110.433 88.1643 110.506 88.5796 110.776 88.8947L110.776 88.8957L110.882 89.0039C111.139 89.2383 111.472 89.3424 111.822 89.3605C112.177 89.3789 112.548 89.3011 112.925 89.1565C113.322 89.0046 113.729 88.7515 114.148 88.4169L114.154 88.4123C114.54 88.0934 114.948 87.9479 115.393 87.9533C115.822 87.9585 116.172 88.1174 116.472 88.4501L116.473 88.4502C116.772 88.7895 116.925 89.1566 116.949 89.5651L116.951 89.7432C116.935 90.2096 116.75 90.5753 116.371 90.8739L116.368 90.8757C115.529 91.5454 114.711 92.0297 113.915 92.3378C113.118 92.6461 112.363 92.7749 111.647 92.7378ZM91.7743 68.2068C93.7977 67.9783 95.5871 67.2423 97.1299 65.9981C98.663 64.7612 99.5405 63.3678 99.6208 61.8145C99.6588 61.0786 99.4802 60.4253 99.0389 59.9069L99.0379 59.9069C98.5882 59.3795 97.958 59.1186 97.2149 59.0801C95.6612 58.9998 94.3637 59.8373 93.3238 61.389C92.2889 62.9337 91.5982 65.0292 91.2228 67.6394L91.1309 68.2801L91.7743 68.2068Z" fill="#EAEAEA" stroke="white"/>
</g>
<path d="M115.71 87.6614L115.513 85.9911L127.463 70.833L129.331 72.3057L117.381 87.4637L115.71 87.6614ZM113.817 88.6856C113.858 89.0248 114.006 89.2955 114.263 89.4976C114.519 89.7 114.817 89.7811 115.156 89.7409L117.45 89.4695C117.773 89.4313 118.073 89.3328 118.351 89.1742C118.629 89.0158 118.864 88.815 119.056 88.5719L133.832 69.8209C133.99 69.5992 134.104 69.3616 134.175 69.108C134.245 68.8542 134.265 68.5945 134.233 68.329C134.202 68.0635 134.124 67.812 134.001 67.5745C133.877 67.3367 133.701 67.1341 133.473 66.9666L131.644 65.5433C131.428 65.3605 131.19 65.2402 130.93 65.1824C130.67 65.1245 130.416 65.1104 130.166 65.1399C129.9 65.1714 129.651 65.2469 129.42 65.3665C129.189 65.4861 128.985 65.6569 128.808 65.879L114.044 84.6208C113.852 84.8639 113.712 85.1391 113.623 85.4464C113.533 85.7537 113.508 86.0688 113.546 86.3916L113.817 88.6856ZM128.384 71.5857L129.331 72.3057L127.463 70.833L128.384 71.5857Z" fill="#EAEAEA"/>
</svg>
