<svg width="48" height="48" viewBox="0 0 48 48" fill="none" xmlns="http://www.w3.org/2000/svg">
<mask id="mask0_2170_577" style="mask-type:alpha" maskUnits="userSpaceOnUse" x="8" y="8" width="32" height="32">
<rect x="8" y="8" width="32" height="32" fill="#D9D9D9"/>
</mask>
<g mask="url(#mask0_2170_577)">
<path fill-rule="evenodd" clip-rule="evenodd" d="M14.251 33.9138C14.3963 33.9721 14.5493 34.0012 14.71 34.0012H24.128C24.2886 34.0012 24.4437 33.9721 24.5933 33.9138C24.7428 33.8558 24.8801 33.7644 25.005 33.6395L35.369 23.0088C35.8372 22.5404 36.0692 21.9691 36.065 21.2948C36.0607 20.6204 35.8244 20.0491 35.356 19.5808L29.3126 13.5372C28.8442 13.0687 28.2783 12.8324 27.615 12.8282C26.9518 12.824 26.3861 13.0671 25.9176 13.5575L11.8153 28.1935C11.3468 28.6842 11.1182 29.2645 11.1293 29.9345C11.1404 30.6045 11.3802 31.1737 11.8486 31.6422L13.846 33.6395C13.9706 33.7644 14.1056 33.8558 14.251 33.9138ZM33.9636 21.5628L26.9825 28.6773L25.7197 29.9732L23.792 32.0012H15.0586L13.2203 30.1628C13.1518 30.0944 13.1176 29.9982 13.1176 29.8742C13.1176 29.7502 13.1518 29.6497 13.2203 29.5728L19.0792 23.4581L20.3004 22.2199L27.3636 14.9628C27.4321 14.886 27.5283 14.8475 27.6523 14.8475C27.7763 14.8475 27.8724 14.8816 27.9406 14.9498L33.9636 20.9728C34.0321 21.0413 34.0663 21.1396 34.0663 21.2678C34.0663 21.3961 34.0321 21.4944 33.9636 21.5628Z" fill="#1C1B1F"/>
<path d="M26.9825 28.6773L20.3004 22.2199L19.0792 23.4581L25.7197 29.9732L26.9825 28.6773Z" fill="#1C1B1F"/>
</g>
</svg>
