<svg width="400" height="400" viewBox="0 0 400 400" fill="none" xmlns="http://www.w3.org/2000/svg">
<g clip-path="url(#clip0_2127_491)">
<path d="M166.519 264.163C133.227 253.352 115.004 217.599 125.815 184.308C128.781 175.175 133.623 167.177 139.777 160.601L119.611 121.038L158.113 101.413L178.277 140.974C187.216 139.857 196.536 140.638 205.67 143.604C238.962 154.416 257.185 190.168 246.374 223.46C235.562 256.751 199.81 274.975 166.519 264.163Z" fill="white"/>
<path d="M165.229 97.7859L159.202 100.858L158.113 101.413M110.988 125.434L118.521 121.594L119.611 121.038M119.611 121.038L139.777 160.601C133.623 167.177 128.781 175.175 125.815 184.308C115.004 217.599 133.227 253.352 166.519 264.163C199.81 274.975 235.562 256.751 246.374 223.46C257.185 190.168 238.962 154.416 205.67 143.604C196.536 140.638 187.216 139.857 178.277 140.974L158.113 101.413M119.611 121.038L158.113 101.413" stroke="#00CD80" stroke-width="10.7624" stroke-linecap="round" stroke-linejoin="round"/>
<path fill-rule="evenodd" clip-rule="evenodd" d="M139.46 188.734C131.096 214.488 145.194 242.145 170.948 250.509C196.701 258.873 224.359 244.775 232.723 219.021C241.086 193.268 226.989 165.61 201.235 157.246C197.718 156.104 194.166 155.381 190.633 155.049L143.911 178.864C142.104 181.918 140.602 185.218 139.46 188.734Z" fill="#00CD80"/>
<path d="M144.521 346.662C104.955 346.662 72.8806 314.587 72.8806 275.021C72.8806 264.168 75.2941 253.878 79.6136 244.66L44.1209 209.167L78.6617 174.626L114.153 210.117C123.373 205.796 133.665 203.381 144.521 203.381C184.087 203.381 216.161 235.456 216.161 275.021C216.161 314.587 184.087 346.662 144.521 346.662Z" fill="white"/>
<path d="M85.0459 168.242L79.6391 173.649L78.6617 174.626M36.3846 216.904L43.1431 210.145L44.1209 209.167M44.1209 209.167L79.6136 244.66C75.2941 253.878 72.8806 264.168 72.8806 275.021C72.8806 314.587 104.955 346.662 144.521 346.662C184.087 346.662 216.161 314.587 216.161 275.021C216.161 235.456 184.087 203.381 144.521 203.381C133.665 203.381 123.373 205.796 114.153 210.117L78.6617 174.626M44.1209 209.167L78.6617 174.626" stroke="#FD6B03" stroke-width="12.1653" stroke-linecap="round" stroke-linejoin="round"/>
<path fill-rule="evenodd" clip-rule="evenodd" d="M89.0949 275.031C89.0949 305.639 113.907 330.451 144.515 330.451C175.122 330.451 199.935 305.639 199.935 275.031C199.935 244.424 175.122 219.611 144.515 219.611C140.335 219.611 136.264 220.074 132.349 220.951L90.4342 262.866C89.5574 266.781 89.0949 270.852 89.0949 275.031Z" fill="#FD6B03"/>
<path d="M197.31 342.153C157.621 302.464 157.621 238.116 197.31 198.427C208.197 187.54 220.939 179.64 234.519 174.726L234.519 103.52L303.815 103.52L303.815 174.722C317.399 179.636 330.145 187.538 341.035 198.427C380.724 238.116 380.724 302.464 341.035 342.153C301.346 381.841 236.998 381.841 197.31 342.153Z" fill="white"/>
<path d="M316.623 103.52L305.776 103.52L303.815 103.52M218.999 103.52L232.558 103.52L234.519 103.52M234.519 103.52L234.519 174.726C220.939 179.64 208.197 187.54 197.31 198.427C157.621 238.116 157.621 302.464 197.31 342.153C236.998 381.841 301.346 381.841 341.035 342.153C380.724 302.464 380.724 238.116 341.035 198.427C330.145 187.538 317.399 179.636 303.815 174.722L303.815 103.52M234.519 103.52L303.815 103.52" stroke="#5755FE" stroke-width="17.2578" stroke-linecap="round" stroke-linejoin="round"/>
<path fill-rule="evenodd" clip-rule="evenodd" d="M213.567 214.701C182.865 245.404 182.865 295.183 213.567 325.885C244.27 356.588 294.048 356.588 324.751 325.885C355.453 295.183 355.453 245.404 324.751 214.701C320.559 210.509 316.011 206.889 311.204 203.842L227.114 203.842C222.307 206.889 217.76 210.509 213.567 214.701Z" fill="#5755FE"/>
</g>
<defs>
<clipPath id="clip0_2127_491">
<rect width="400" height="400" fill="white"/>
</clipPath>
</defs>
</svg>
