<svg width="1194" height="835" viewBox="0 0 1194 835" fill="none" xmlns="http://www.w3.org/2000/svg">
<path d="M198.984 281.91C199.536 280.656 201.316 280.656 201.869 281.91L205.449 290.037C205.61 290.4 205.901 290.69 206.265 290.847L214.427 294.383C215.694 294.932 215.694 296.727 214.427 297.276L206.265 300.812C205.901 300.969 205.61 301.259 205.449 301.622L201.869 309.749C201.316 311.003 199.536 311.003 198.984 309.749L195.403 301.622C195.243 301.259 194.951 300.969 194.587 300.812L186.425 297.276C185.159 296.727 185.159 294.932 186.425 294.383L194.587 290.847C194.951 290.69 195.243 290.4 195.403 290.037L198.984 281.91Z" fill="#00CD80"/>
</svg>
