<svg width="1920" height="1080" viewBox="0 0 1920 1080" fill="none" xmlns="http://www.w3.org/2000/svg">
<path d="M327.351 356.303C328.186 354.409 330.873 354.409 331.708 356.303L337.115 368.573C337.357 369.122 337.797 369.559 338.347 369.797L350.671 375.136C352.583 375.964 352.583 378.676 350.671 379.504L338.347 384.843C337.797 385.081 337.357 385.519 337.115 386.067L331.708 398.338C330.873 400.232 328.186 400.232 327.351 398.338L321.945 386.067C321.703 385.519 321.263 385.081 320.712 384.843L308.388 379.504C306.476 378.676 306.476 375.964 308.388 375.136L320.712 369.797C321.263 369.559 321.703 369.122 321.945 368.573L327.351 356.303Z" fill="#00CD80"/>
</svg>
