<svg width="1194" height="835" viewBox="0 0 1194 835" fill="none" xmlns="http://www.w3.org/2000/svg">
<path d="M660.995 322.935C661.364 319.473 666.403 319.473 666.772 322.935V322.935C667.015 325.213 669.694 326.314 671.481 324.88V324.88C674.183 322.713 677.776 326.227 675.586 328.911V328.911C674.138 330.686 675.239 333.361 677.517 333.6V333.6C680.959 333.961 680.959 338.971 677.517 339.331V339.331C675.239 339.57 674.138 342.245 675.586 344.02V344.02C677.776 346.704 674.183 350.218 671.481 348.051V348.051C669.694 346.618 667.015 347.718 666.772 349.996V349.996C666.403 353.458 661.364 353.458 660.995 349.996V349.996C660.752 347.718 658.073 346.618 656.286 348.051V348.051C653.584 350.218 649.991 346.704 652.181 344.02V344.02C653.629 342.245 652.528 339.57 650.25 339.331V339.331C646.808 338.971 646.808 333.961 650.25 333.6V333.6C652.528 333.361 653.629 330.686 652.181 328.911V328.911C649.991 326.227 653.584 322.713 656.286 324.88V324.88C658.073 326.314 660.752 325.213 660.995 322.935V322.935Z" fill="#5755FE"/>
</svg>
