<svg width="1920" height="1080" viewBox="0 0 1920 1080" fill="none" xmlns="http://www.w3.org/2000/svg">
<path d="M1025.7 418.25C1026.26 413.022 1033.87 413.022 1034.43 418.25V418.25C1034.79 421.689 1038.84 423.351 1041.53 421.187V421.187C1045.62 417.914 1051.04 423.22 1047.73 427.274V427.274C1045.55 429.954 1047.21 433.993 1050.65 434.353V434.353C1055.85 434.898 1055.85 442.463 1050.65 443.007V443.007C1047.21 443.368 1045.55 447.407 1047.73 450.087V450.087C1051.04 454.14 1045.62 459.447 1041.53 456.174V456.174C1038.84 454.009 1034.79 455.671 1034.43 459.111V459.111C1033.87 464.338 1026.26 464.338 1025.7 459.111V459.111C1025.33 455.671 1021.29 454.009 1018.59 456.174V456.174C1014.51 459.447 1009.09 454.14 1012.39 450.087V450.087C1014.58 447.407 1012.92 443.368 1009.48 443.007V443.007C1004.28 442.463 1004.28 434.898 1009.48 434.353V434.353C1012.92 433.993 1014.58 429.954 1012.39 427.274V427.274C1009.09 423.22 1014.51 417.914 1018.59 421.187V421.187C1021.29 423.351 1025.33 421.689 1025.7 418.25V418.25Z" fill="#5755FE"/>
</svg>
