<svg width="48" height="48" viewBox="0 0 48 48" fill="none" xmlns="http://www.w3.org/2000/svg">
<mask id="mask0_2170_569" style="mask-type:alpha" maskUnits="userSpaceOnUse" x="8" y="8" width="32" height="32">
<rect x="8" y="8" width="32" height="32" fill="#D9D9D9"/>
</mask>
<g mask="url(#mask0_2170_569)">
<path d="M29.23 31.102C29.7513 31.102 30.1937 30.9203 30.557 30.557C30.9203 30.1937 31.102 29.7513 31.102 29.23C31.102 28.7087 30.9203 28.2665 30.557 27.9033C30.1937 27.54 29.7513 27.3583 29.23 27.3583C28.7087 27.3583 28.2665 27.54 27.9033 27.9033C27.54 28.2665 27.3583 28.7087 27.3583 29.23C27.3583 29.7513 27.54 30.1937 27.9033 30.557C28.2665 30.9203 28.7087 31.102 29.23 31.102ZM23.9993 25.871C24.5207 25.871 24.963 25.6895 25.3263 25.3263C25.6895 24.963 25.871 24.5207 25.871 23.9993C25.871 23.478 25.6895 23.0357 25.3263 22.6723C24.963 22.3092 24.5207 22.1277 23.9993 22.1277C23.478 22.1277 23.0357 22.3092 22.6723 22.6723C22.3092 23.0357 22.1277 23.478 22.1277 23.9993C22.1277 24.5207 22.3092 24.963 22.6723 25.3263C23.0357 25.6895 23.478 25.871 23.9993 25.871ZM18.7687 20.6403C19.29 20.6403 19.7322 20.4587 20.0953 20.0953C20.4587 19.7322 20.6403 19.29 20.6403 18.7687C20.6403 18.2473 20.4587 17.805 20.0953 17.4417C19.7322 17.0783 19.29 16.8967 18.7687 16.8967C18.2473 16.8967 17.805 17.0783 17.4417 17.4417C17.0783 17.805 16.8967 18.2473 16.8967 18.7687C16.8967 19.29 17.0783 19.7322 17.4417 20.0953C17.805 20.4587 18.2473 20.6403 18.7687 20.6403ZM15.0763 35.3327C14.4028 35.3327 13.8327 35.0993 13.366 34.6327C12.8993 34.166 12.666 33.5959 12.666 32.9223V15.0763C12.666 14.4028 12.8993 13.8327 13.366 13.366C13.8327 12.8993 14.4028 12.666 15.0763 12.666H32.9223C33.5959 12.666 34.166 12.8993 34.6327 13.366C35.0993 13.8327 35.3327 14.4028 35.3327 15.0763V32.9223C35.3327 33.5959 35.0993 34.166 34.6327 34.6327C34.166 35.0993 33.5959 35.3327 32.9223 35.3327H15.0763ZM15.0763 33.3327H32.9223C33.025 33.3327 33.119 33.2899 33.2043 33.2043C33.2899 33.119 33.3327 33.025 33.3327 32.9223V15.0763C33.3327 14.9737 33.2899 14.8797 33.2043 14.7943C33.119 14.7088 33.025 14.666 32.9223 14.666H15.0763C14.9737 14.666 14.8797 14.7088 14.7943 14.7943C14.7088 14.8797 14.666 14.9737 14.666 15.0763V32.9223C14.666 33.025 14.7088 33.119 14.7943 33.2043C14.8797 33.2899 14.9737 33.3327 15.0763 33.3327Z" fill="#1C1B1F"/>
</g>
</svg>
