<svg width="49" height="48" viewBox="0 0 49 48" fill="none" xmlns="http://www.w3.org/2000/svg">
<path d="M29.8933 12.3262L30.6124 13.0453L30.7424 13.1753M36.3652 18.7981L35.4663 17.8993L35.3363 17.7692M35.3363 17.7692L30.6158 22.4897C31.1903 23.7158 31.5113 25.0843 31.5113 26.5278C31.5113 31.79 27.2454 36.0559 21.9832 36.0559C16.7209 36.0559 12.4551 31.79 12.4551 26.5278C12.4551 21.2656 16.7209 16.9997 21.9832 16.9997C23.427 16.9997 24.7958 17.3208 26.0221 17.8956L30.7424 13.1753M35.3363 17.7692L30.7424 13.1753" stroke="#FD6B03" stroke-width="1.5" stroke-linecap="round" stroke-linejoin="round"/>
<path fill-rule="evenodd" clip-rule="evenodd" d="M29.3549 26.529C29.3549 30.5998 26.0548 33.8998 21.9841 33.8998C17.9133 33.8998 14.6133 30.5998 14.6133 26.529C14.6133 22.4583 17.9133 19.1583 21.9841 19.1583C22.5399 19.1583 23.0814 19.2198 23.602 19.3364L29.1767 24.9111C29.2933 25.4317 29.3549 25.9732 29.3549 26.529Z" fill="#FD6B03"/>
</svg>
