<svg width="48" height="48" viewBox="0 0 48 48" fill="none" xmlns="http://www.w3.org/2000/svg">
<mask id="mask0_2170_573" style="mask-type:alpha" maskUnits="userSpaceOnUse" x="8" y="8" width="32" height="32">
<rect x="8" y="8" width="32" height="32" fill="#D9D9D9"/>
</mask>
<g mask="url(#mask0_2170_573)">
<path d="M15.0763 35.3327C14.4028 35.3327 13.8327 35.0993 13.366 34.6327C12.8993 34.166 12.666 33.5959 12.666 32.9223V15.0763C12.666 14.4028 12.8993 13.8327 13.366 13.366C13.8327 12.8993 14.4028 12.666 15.0763 12.666H24.0763C24.3597 12.666 24.5971 12.7619 24.7887 12.9537C24.9805 13.1455 25.0763 13.383 25.0763 13.6663C25.0763 13.9499 24.9805 14.1873 24.7887 14.3787C24.5971 14.5702 24.3597 14.666 24.0763 14.666H15.0763C14.9566 14.666 14.8582 14.7045 14.7813 14.7813C14.7045 14.8582 14.666 14.9566 14.666 15.0763V32.9223C14.666 33.0421 14.7045 33.1405 14.7813 33.2173C14.8582 33.2942 14.9566 33.3327 15.0763 33.3327H32.9223C33.0421 33.3327 33.1405 33.2942 33.2173 33.2173C33.2942 33.1405 33.3327 33.0421 33.3327 32.9223V23.9223C33.3327 23.639 33.4286 23.4016 33.6203 23.21C33.8121 23.0182 34.0497 22.9223 34.333 22.9223C34.6166 22.9223 34.854 23.0182 35.0453 23.21C35.2369 23.4016 35.3327 23.639 35.3327 23.9223V32.9223C35.3327 33.5959 35.0993 34.166 34.6327 34.6327C34.166 35.0993 33.5959 35.3327 32.9223 35.3327H15.0763ZM16.5123 30.2557H31.4863L26.8327 24.0507L22.8327 29.243L19.9993 25.6403L16.5123 30.2557ZM30.666 17.3327H28.9993C28.716 17.3327 28.4785 17.2368 28.2867 17.045C28.0951 16.8532 27.9993 16.6157 27.9993 16.3323C27.9993 16.0488 28.0951 15.8113 28.2867 15.62C28.4785 15.4285 28.716 15.3327 28.9993 15.3327H30.666V13.666C30.666 13.3827 30.7619 13.1452 30.9537 12.9537C31.1455 12.7619 31.383 12.666 31.6663 12.666C31.9499 12.666 32.1873 12.7619 32.3787 12.9537C32.5702 13.1452 32.666 13.3827 32.666 13.666V15.3327H34.3327C34.616 15.3327 34.8535 15.4286 35.045 15.6203C35.2368 15.8121 35.3327 16.0497 35.3327 16.333C35.3327 16.6166 35.2368 16.854 35.045 17.0453C34.8535 17.2369 34.616 17.3327 34.3327 17.3327H32.666V18.9993C32.666 19.2827 32.5701 19.5202 32.3783 19.712C32.1866 19.9036 31.949 19.9993 31.6657 19.9993C31.3821 19.9993 31.1447 19.9036 30.9533 19.712C30.7618 19.5202 30.666 19.2827 30.666 18.9993V17.3327Z" fill="#1C1B1F"/>
</g>
</svg>
