<svg width="48" height="48" viewBox="0 0 48 48" fill="none" xmlns="http://www.w3.org/2000/svg">
<g clip-path="url(#clip0_2227_280)">
<path d="M28.8933 12.0118L29.6124 12.7309L29.7424 12.8609M35.3652 18.4837L34.4663 17.5848L34.3363 17.4548M34.3363 17.4548L29.6158 22.1753C30.1903 23.4013 30.5113 24.7698 30.5113 26.2133C30.5113 31.4755 26.2454 35.7414 20.9832 35.7414C15.7209 35.7414 11.4551 31.4755 11.4551 26.2133C11.4551 20.9511 15.7209 16.6852 20.9832 16.6852C22.427 16.6852 23.7958 17.0064 25.0221 17.5811L29.7424 12.8609M34.3363 17.4548L29.7424 12.8609" stroke="#00CD80" stroke-width="1.5" stroke-linecap="round" stroke-linejoin="round"/>
<path fill-rule="evenodd" clip-rule="evenodd" d="M28.3549 26.2126C28.3549 30.2834 25.0548 33.5834 20.9841 33.5834C16.9133 33.5834 13.6133 30.2834 13.6133 26.2126C13.6133 22.1419 16.9133 18.8419 20.9841 18.8419C21.5399 18.8419 22.0814 18.9034 22.602 19.02L28.1767 24.5947C28.2933 25.1153 28.3549 25.6568 28.3549 26.2126Z" fill="#00CD80"/>
</g>
<defs>
<clipPath id="clip0_2227_280">
<rect y="6.10352e-05" width="48" height="48" rx="8" fill="white"/>
</clipPath>
</defs>
</svg>
