<svg width="48" height="48" viewBox="0 0 48 48" fill="none" xmlns="http://www.w3.org/2000/svg">
<mask id="mask0_2170_581" style="mask-type:alpha" maskUnits="userSpaceOnUse" x="8" y="8" width="32" height="32">
<rect x="8" y="8" width="32" height="32" fill="#D9D9D9"/>
</mask>
<g mask="url(#mask0_2170_581)">
<path d="M14.668 33.3346H16.35L29.9986 19.686L28.3166 18.004L14.668 31.6526V33.3346ZM13.8733 35.3346C13.5317 35.3346 13.2455 35.2191 13.0146 34.988C12.7835 34.7571 12.668 34.4709 12.668 34.1293V31.8193C12.668 31.4942 12.7304 31.1843 12.8553 30.8896C12.98 30.595 13.1517 30.3382 13.3706 30.1193L30.2553 13.2423C30.4569 13.0592 30.6794 12.9177 30.923 12.818C31.1667 12.718 31.4223 12.668 31.6896 12.668C31.957 12.668 32.2159 12.7154 32.4663 12.8103C32.717 12.9052 32.9389 13.0561 33.132 13.263L34.7603 14.9116C34.9672 15.1047 35.1146 15.327 35.2026 15.5783C35.2906 15.8296 35.3346 16.081 35.3346 16.3323C35.3346 16.6005 35.2889 16.8564 35.1973 17.1C35.1057 17.3437 34.9601 17.5664 34.7603 17.768L17.8833 34.632C17.6644 34.8509 17.4076 35.0226 17.113 35.1473C16.8183 35.2722 16.5084 35.3346 16.1833 35.3346H13.8733ZM29.143 18.8596L28.3166 18.004L29.9986 19.686L29.143 18.8596Z" fill="#1C1B1F"/>
</g>
</svg>
