<svg width="48" height="48" viewBox="0 0 48 48" fill="none" xmlns="http://www.w3.org/2000/svg">
<mask id="mask0_2170_565" style="mask-type:alpha" maskUnits="userSpaceOnUse" x="8" y="8" width="32" height="32">
<rect x="8" y="8" width="32" height="32" fill="#D9D9D9"/>
</mask>
<g mask="url(#mask0_2170_565)">
<path d="M24.0013 36.6669C22.4286 36.6669 20.9552 36.3694 19.581 35.7746C18.2065 35.1797 17.0082 34.3711 15.986 33.3489C14.9637 32.3267 14.1552 31.1283 13.5603 29.7539C12.9654 28.3797 12.668 26.9062 12.668 25.3336C12.668 25.0498 12.7637 24.8122 12.9553 24.6209C13.1466 24.4293 13.3842 24.3336 13.668 24.3336C13.9517 24.3336 14.1893 24.4293 14.3806 24.6209C14.5722 24.8122 14.668 25.0498 14.668 25.3336C14.668 27.9336 15.5735 30.1391 17.3846 31.9502C19.1957 33.7613 21.4013 34.6669 24.0013 34.6669C26.6013 34.6669 28.8069 33.7613 30.618 31.9502C32.4291 30.1391 33.3346 27.9336 33.3346 25.3336C33.3346 22.7336 32.4291 20.528 30.618 18.7169C28.8069 16.9058 26.6013 16.0002 24.0013 16.0002H23.6473L25.063 17.4156C25.2612 17.614 25.359 17.8461 25.3563 18.1119C25.3539 18.3777 25.2561 18.6139 25.063 18.8206C24.8561 19.0274 24.6184 19.1343 24.35 19.1412C24.0817 19.1481 23.8442 19.0481 23.6373 18.8412L20.64 15.8309C20.3989 15.59 20.2783 15.3089 20.2783 14.9876C20.2783 14.666 20.3989 14.3848 20.64 14.1439L23.663 11.1336C23.8612 10.9353 24.0966 10.8374 24.3693 10.8399C24.642 10.8426 24.8817 10.9473 25.0886 11.1542C25.2817 11.3609 25.3817 11.595 25.3886 11.8566C25.3953 12.1181 25.2953 12.3523 25.0886 12.5592L23.6473 14.0002H24.0013C25.574 14.0002 27.0474 14.2977 28.4216 14.8926C29.7961 15.4874 30.9944 16.296 32.0166 17.3182C33.0389 18.3404 33.8474 19.5388 34.4423 20.9132C35.0372 22.2874 35.3346 23.7609 35.3346 25.3336C35.3346 26.9062 35.0372 28.3797 34.4423 29.7539C33.8474 31.1283 33.0389 32.3267 32.0166 33.3489C30.9944 34.3711 29.7961 35.1797 28.4216 35.7746C27.0474 36.3694 25.574 36.6669 24.0013 36.6669Z" fill="#1C1B1F"/>
</g>
</svg>
